<svg xmlns="http://www.w3.org/2000/svg" xmlns:xlink="http://www.w3.org/1999/xlink" width="93.238" height="70.404" viewBox="0 0 93.238 70.404"><defs><clipPath id="a"><rect width="93.238" height="70.404" fill="#fff"/></clipPath></defs><g clip-path="url(#a)"><path d="M137.42,63.494h12.214a11.345,11.345,0,0,0,11.41-11,17.956,17.956,0,0,0-.067-1.92A17.524,17.524,0,0,0,126,52.155c0,.043,0,.086,0,.13a11.374,11.374,0,0,0,11.418,11.21m-5.671-19.7c1.406-2.929,4.33-4.446,6.531-3.39s2.845,4.287,1.439,7.216-4.33,4.446-6.531,3.39-2.845-4.287-1.439-7.216" transform="translate(-96.789 -26.603)" fill="#fff"/><path d="M90.564,51.88l.04.034a34.814,34.814,0,0,0,45.383.23l.161-.137a11.325,11.325,0,0,0,3.46-5.347,4.708,4.708,0,0,0-1.978-5.295l-.076-.048a4.786,4.786,0,0,0-4.421-.324,4.984,4.984,0,0,0-1.99-1.967A22.222,22.222,0,0,0,133.9,34.3a5.891,5.891,0,0,0,5.786-5.888V22.378a5.894,5.894,0,0,0-5.894-5.894v.084a22.262,22.262,0,0,0-40.414-.692V1.579a1.579,1.579,0,0,0-3.157,0V17.216a5.891,5.891,0,0,0-3.051,5.162v6.035A5.891,5.891,0,0,0,92.957,34.3a22.222,22.222,0,0,0,2.69,4.64,4.982,4.982,0,0,0-1.807,1.647,4.718,4.718,0,0,0-2.258-.577,4.79,4.79,0,0,0-2.188.531l-.045.023a4.711,4.711,0,0,0-2.43,5.118,11.125,11.125,0,0,0,1.017,2.864,11.28,11.28,0,0,0,2.628,3.333m39.968-7.929a1.784,1.784,0,0,1-.479.793c-.027.027-.051.055-.081.081l-.118.1c-.1.081-.195.157-.291.237-.188.155-.376.312-.569.462-.116.091-.237.176-.354.264-.181.135-.36.272-.544.4-.088.062-.178.12-.266.181-.222.153-.443.306-.669.451-.047.03-.1.059-.143.089-.273.173-.547.343-.826.505h0a25.4,25.4,0,0,1-10.517,3.351l-.126.009c-.327.027-.654.051-.983.066q-.565.025-1.136.026t-1.155-.027c-.3-.014-.6-.036-.893-.06-.078-.006-.157-.01-.235-.016a25.373,25.373,0,0,1-9.632-2.876l-.032-.016c-.282-.151-.56-.31-.837-.471-.055-.032-.111-.062-.166-.095-.23-.137-.457-.281-.683-.426-.1-.061-.194-.12-.288-.182-.184-.121-.364-.249-.545-.374-.131-.091-.263-.179-.392-.272-.151-.109-.3-.225-.446-.337s-.3-.226-.452-.344c-.184-.146-.364-.3-.544-.45-.106-.089-.215-.175-.32-.266l-.022-.019a1.878,1.878,0,0,1-.247-.26l-.011-.015a1.859,1.859,0,0,1-.181-.286l-.013-.027a1.718,1.718,0,0,1-.081-.192l-.007-.024a1.721,1.721,0,0,1-.057-.206h0a1.869,1.869,0,0,1,1.729-2.217,22.239,22.239,0,0,0,30.94.078c.045,0,.091.006.136.011a1.84,1.84,0,0,1,1.563,2.275c-.008.026-.018.051-.026.077m-17.1-37.5a19.1,19.1,0,1,1-19.1,19.1,19.123,19.123,0,0,1,19.1-19.1M90.806,43.366l.033-.017A1.556,1.556,0,0,1,93.1,44.363a4.926,4.926,0,0,0,.427,1.226,5.017,5.017,0,0,0,1.192,1.531l.025.022a28.5,28.5,0,0,0,37.151.2l.14-.12a5.007,5.007,0,0,0,1.532-2.385A1.556,1.556,0,0,1,135.9,44l.03.019a1.542,1.542,0,0,1,.656,1.737,8.163,8.163,0,0,1-2.493,3.854l-.15.128a31.657,31.657,0,0,1-41.268-.213l-.035-.031a8.165,8.165,0,0,1-1.9-2.4,7.974,7.974,0,0,1-.729-2.052,1.543,1.543,0,0,1,.8-1.675" transform="translate(-66.693 -0.001)" fill="#fff"/><path d="M6.846,272.088a1.453,1.453,0,0,0-.837-.229,1.44,1.44,0,0,0-.865.246,2.445,2.445,0,0,0-.566.555L0,279.116H2.614l3.351-4.738,1.28,1.889q.182.257.379.55c.131.2.247.358.347.485-.171-.014-.372-.022-.6-.022H4.909l-1.334,1.836h8.3L7.417,272.66a2.195,2.195,0,0,0-.571-.572" transform="translate(0 -208.829)" fill="#fff"/><path d="M61.872,275.7a3.436,3.436,0,0,0-2-.485H55.991a1.141,1.141,0,0,1-.572-.112.416.416,0,0,1-.187-.389.406.406,0,0,1,.187-.385,1.2,1.2,0,0,1,.572-.107h4.952l1.419-1.857h-6.2a5.287,5.287,0,0,0-1.392.161,2.687,2.687,0,0,0-.95.448,1.749,1.749,0,0,0-.544.7,2.279,2.279,0,0,0-.176.912,2.129,2.129,0,0,0,.16.838,1.632,1.632,0,0,0,.491.645,2.391,2.391,0,0,0,.833.416,4.2,4.2,0,0,0,1.195.151h3.885a1.09,1.09,0,0,1,.576.117.432.432,0,0,1,.182.394.447.447,0,0,1-.182.4,1.052,1.052,0,0,1-.576.122h-5.4L52.843,279.5h6.648a5.293,5.293,0,0,0,1.393-.16,2.625,2.625,0,0,0,.955-.459,1.739,1.739,0,0,0,.544-.737,2.675,2.675,0,0,0,.171-.981,1.681,1.681,0,0,0-.683-1.468" transform="translate(-40.592 -209.218)" fill="#fff"/><path d="M94.732,272.365l-1.43,1.857h3.35V279.5h2.21v-5.283h2.551l1.43-1.857Z" transform="translate(-71.67 -209.218)" fill="#fff"/><path d="M142.415,277.531a5.2,5.2,0,0,0-.406-.353,2.386,2.386,0,0,0,.784-.293,2.179,2.179,0,0,0,.587-.506,2.21,2.21,0,0,0,.368-.673,2.418,2.418,0,0,0,.128-.789,2.134,2.134,0,0,0-.346-1.259,2.534,2.534,0,0,0-.881-.779,3.845,3.845,0,0,0-1.184-.4,7.435,7.435,0,0,0-1.259-.112h-4.589l-1.44,1.857h6.21a1.634,1.634,0,0,1,.9.208.7.7,0,0,1,.32.624.657.657,0,0,1-.352.587,1.643,1.643,0,0,1-.865.214h-6.21V279.5h2.209v-1.889h3.394l1.59,1.889h2.955l-1.312-1.387q-.374-.374-.6-.587" transform="translate(-103.068 -209.218)" fill="#fff"/><path d="M188.413,272.745a9.09,9.09,0,0,0-7.827,0,3.669,3.669,0,0,0-.005,5.6,9.113,9.113,0,0,0,7.839,0,3.659,3.659,0,0,0-.006-5.6m-1.051,3.73a1.2,1.2,0,0,1-.518.56,2.491,2.491,0,0,1-.933.272,14.351,14.351,0,0,1-2.817,0,2.494,2.494,0,0,1-.934-.272,1.2,1.2,0,0,1-.517-.56,2.795,2.795,0,0,1,0-1.868,1.168,1.168,0,0,1,.517-.555,2.6,2.6,0,0,1,.934-.267,14.307,14.307,0,0,1,2.817,0,2.593,2.593,0,0,1,.933.267,1.167,1.167,0,0,1,.518.555,2.811,2.811,0,0,1,0,1.868" transform="translate(-137.718 -208.829)" fill="#fff"/><path d="M235.463,276.171l-4.375-3.927a1.4,1.4,0,0,0-.475-.315,1.3,1.3,0,0,0-.41-.07,1.393,1.393,0,0,0-.453.075,1.029,1.029,0,0,0-.385.235,1.154,1.154,0,0,0-.266.416,1.645,1.645,0,0,0-.1.608v5.923H231v-4.194l4.376,3.927a1.31,1.31,0,0,0,.464.314,1.329,1.329,0,0,0,.421.07,1.455,1.455,0,0,0,.459-.075.976.976,0,0,0,.389-.24,1.229,1.229,0,0,0,.268-.422,1.659,1.659,0,0,0,.1-.608v-5.912h-2.017Z" transform="translate(-175.903 -208.829)" fill="#fff"/><path d="M274.367,272.088a1.644,1.644,0,0,0-1.7.016,2.452,2.452,0,0,0-.565.555l-4.579,6.456h2.615l3.351-4.738,1.281,1.889q.181.257.379.55c.131.2.247.358.347.485-.17-.014-.372-.022-.6-.022h-2.459l-1.334,1.836h8.3l-4.461-6.456a2.189,2.189,0,0,0-.571-.572" transform="translate(-205.497 -208.829)" fill="#fff"/><path d="M325.259,276.388a1.63,1.63,0,0,1-.113.64.971.971,0,0,1-.367.438,1.8,1.8,0,0,1-.683.246,6.4,6.4,0,0,1-1.067.075,11.187,11.187,0,0,1-1.387-.07,2.3,2.3,0,0,1-.827-.235.859.859,0,0,1-.4-.432,1.789,1.789,0,0,1-.107-.662v-4.024h-2.2v4.024a3.3,3.3,0,0,0,.282,1.414,2.47,2.47,0,0,0,.886,1.008,4.412,4.412,0,0,0,1.531.609,10.579,10.579,0,0,0,2.22.2q4.45,0,4.45-3.233v-4.024h-2.219Z" transform="translate(-244.356 -209.217)" fill="#fff"/><path d="M362.437,272.365l-1.43,1.857h3.35V279.5h2.209v-5.283h2.551l1.43-1.857Z" transform="translate(-277.309 -209.218)" fill="#fff"/></g></svg>
