<svg xmlns="http://www.w3.org/2000/svg" width="88.14" height="88.141" viewBox="0 0 88.14 88.141"><g transform="translate(0.5 0.5)"><path d="M.709,51.351a43.291,43.291,0,0,0,5.866,15.2,43.6,43.6,0,0,0,73.989,0,43.5,43.5,0,0,0,6.53-21.16c.025-.6.046-1.209.046-1.819a43.607,43.607,0,0,0-.689-7.668Q86.1,33.917,85.568,32a43.315,43.315,0,0,0-3.424-8.65q-.811-1.54-1.739-3a43.9,43.9,0,0,0-7.231-8.7q-1.534-1.423-3.2-2.7a43.445,43.445,0,0,0-52.807,0q-1.665,1.272-3.2,2.7a43.9,43.9,0,0,0-7.231,8.7q-.926,1.465-1.739,3A43.253,43.253,0,0,0,1.573,32Q1.043,33.916.689,35.9A43.655,43.655,0,0,0,0,43.571c0,.61.021,1.215.046,1.819a43.545,43.545,0,0,0,.663,5.96M43.57,83.587a39.823,39.823,0,0,1-25.244-9A106.549,106.549,0,0,0,43.57,77.427a106.548,106.548,0,0,0,25.244-2.835,39.82,39.82,0,0,1-25.244,9m30.54-14.2c-7.657,2.692-18.147,4.485-30.54,4.485S20.687,72.08,13.031,69.388A39.925,39.925,0,0,1,5,54.212C13.645,58.965,27.573,62,43.57,62s29.925-3.03,38.569-7.783A39.953,39.953,0,0,1,74.11,69.388M43.57,3.554a39.767,39.767,0,0,1,21.818,6.5A107.466,107.466,0,0,1,43.57,12.146a107.479,107.479,0,0,1-21.818-2.095,39.769,39.769,0,0,1,21.818-6.5M18.032,12.788A106.188,106.188,0,0,0,43.57,15.7a106.193,106.193,0,0,0,25.537-2.911A40.31,40.31,0,0,1,77.184,21.9c-7.8,3.342-19.468,5.678-33.613,5.678S17.761,25.241,9.957,21.9a40.3,40.3,0,0,1,8.075-9.11M8.184,24.915c8.688,3.841,21.225,6.217,35.386,6.217s26.7-2.375,35.387-6.217a39.727,39.727,0,0,1,3.578,9.575c-7.161,4.783-21.076,8.52-38.965,8.52s-31.8-3.736-38.965-8.52a39.707,39.707,0,0,1,3.578-9.575M3.929,38.164c8.535,5.105,22.963,8.4,39.641,8.4s31.1-3.294,39.641-8.4A39.586,39.586,0,0,1,83.144,49.5c-6.963,4.982-21.165,8.939-39.574,8.939S10.959,54.485,4,49.5a39.536,39.536,0,0,1-.066-11.338" fill="#fdfdfa" stroke="#fdfdfa" stroke-width="1"/></g></svg>