<svg xmlns="http://www.w3.org/2000/svg" width="78.449" height="88.141" viewBox="0 0 78.449 88.141"><g transform="translate(0.5 0.5)"><path d="M77.449,25.73a7.394,7.394,0,0,0-12.573-5.284L45.83,9.45a7.4,7.4,0,1,0-14.211,0l-19.047,11a7.395,7.395,0,1,0-6.949,12.46V54.43A7.4,7.4,0,1,0,12.7,66.764L31.619,77.69a7.4,7.4,0,1,0,14.211,0L64.752,66.764A7.395,7.395,0,1,0,71.825,54.43V32.906a7.408,7.408,0,0,0,5.624-7.176m-33.4-13.2L63,23.469a7.3,7.3,0,0,0-.071,4.274L44.417,38.42a7.386,7.386,0,0,0-3.671-2.063l-.234-21.783a7.4,7.4,0,0,0,3.539-2.046m-1.09,31.042a3.846,3.846,0,1,1-3.847-3.846,3.852,3.852,0,0,1,3.847,3.846M38.724,3.554A3.846,3.846,0,1,1,34.877,7.4a3.851,3.851,0,0,1,3.847-3.846M33.4,12.527a7.4,7.4,0,0,0,3.558,2.052l.234,21.852a7.4,7.4,0,0,0-3.482,2.1l-19.191-10.8a7.285,7.285,0,0,0-.074-4.263ZM3.553,25.73A3.847,3.847,0,1,1,7.4,29.577h0A3.852,3.852,0,0,1,3.553,25.73M7.4,65.454a3.847,3.847,0,1,1,3.847-3.847A3.852,3.852,0,0,1,7.4,65.454M9.176,54.43V32.906a7.4,7.4,0,0,0,3.582-2.086L31.978,41.632a7.212,7.212,0,0,0,.008,3.908L12.735,56.49a7.4,7.4,0,0,0-3.558-2.06M33.4,74.614,14.494,63.7a7.281,7.281,0,0,0,.015-4.13L33.732,48.635a7.405,7.405,0,0,0,3.459,2.074l-.234,21.852A7.4,7.4,0,0,0,33.4,74.614m5.325,8.973a3.847,3.847,0,1,1,3.847-3.847,3.852,3.852,0,0,1-3.847,3.847m5.325-8.973a7.4,7.4,0,0,0-3.539-2.047l.234-21.782a7.4,7.4,0,0,0,3.648-2.039L62.942,59.559a7.285,7.285,0,0,0,.013,4.139ZM64.721,56.481,46.2,45.684a7.317,7.317,0,0,0,.008-4.2L64.7,30.828a7.392,7.392,0,0,0,3.574,2.078V54.43a7.392,7.392,0,0,0-3.55,2.051M73.9,61.6a3.846,3.846,0,1,1-3.851-3.846h.008A3.851,3.851,0,0,1,73.9,61.6M70.051,29.577h-.005a3.847,3.847,0,1,1,.005,0" fill="#fdfdfa" stroke="#fdfdfa" stroke-width="1"/></g></svg>